<mxfile host="Electron" modified="2024-01-03T08:20:44.119Z" agent="Mozilla/5.0 (Macintosh; Intel Mac OS X 10_15_7) AppleWebKit/537.36 (KHTML, like Gecko) draw.io/22.1.16 Chrome/120.0.6099.109 Electron/28.1.0 Safari/537.36" etag="-AhtNnVnvQSZoW3LUWqc" version="22.1.16" type="device">
  <diagram name="第 1 页" id="0QX6zuNXph34lFArkcR_">
    <mxGraphModel dx="1466" dy="933" grid="1" gridSize="10" guides="1" tooltips="1" connect="1" arrows="1" fold="1" page="1" pageScale="1" pageWidth="1600" pageHeight="1200" math="0" shadow="0">
      <root>
        <mxCell id="0" />
        <mxCell id="1" parent="0" />
        <mxCell id="X1OBW4G1uLcTytMsymYR-1" value="&lt;font style=&quot;font-size: 24px;&quot;&gt;0&lt;/font&gt;" style="whiteSpace=wrap;html=1;aspect=fixed;" parent="1" vertex="1">
          <mxGeometry x="440" y="200" width="80" height="80" as="geometry" />
        </mxCell>
        <mxCell id="X1OBW4G1uLcTytMsymYR-2" value="&lt;font style=&quot;font-size: 24px;&quot;&gt;0&lt;/font&gt;" style="whiteSpace=wrap;html=1;aspect=fixed;" parent="1" vertex="1">
          <mxGeometry x="520" y="200" width="80" height="80" as="geometry" />
        </mxCell>
        <mxCell id="X1OBW4G1uLcTytMsymYR-3" value="&lt;font style=&quot;font-size: 24px;&quot;&gt;0&lt;/font&gt;" style="whiteSpace=wrap;html=1;aspect=fixed;" parent="1" vertex="1">
          <mxGeometry x="600" y="200" width="80" height="80" as="geometry" />
        </mxCell>
        <mxCell id="X1OBW4G1uLcTytMsymYR-4" value="&lt;font style=&quot;font-size: 24px;&quot;&gt;0&lt;/font&gt;" style="whiteSpace=wrap;html=1;aspect=fixed;" parent="1" vertex="1">
          <mxGeometry x="680" y="200" width="80" height="80" as="geometry" />
        </mxCell>
        <mxCell id="X1OBW4G1uLcTytMsymYR-5" value="&lt;font style=&quot;font-size: 24px;&quot;&gt;0&lt;/font&gt;" style="whiteSpace=wrap;html=1;aspect=fixed;" parent="1" vertex="1">
          <mxGeometry x="760" y="200" width="80" height="80" as="geometry" />
        </mxCell>
        <mxCell id="X1OBW4G1uLcTytMsymYR-7" value="" style="shape=flexArrow;endArrow=classic;html=1;rounded=0;" parent="1" edge="1">
          <mxGeometry width="50" height="50" relative="1" as="geometry">
            <mxPoint x="479.5" y="120" as="sourcePoint" />
            <mxPoint x="479.5" y="180" as="targetPoint" />
          </mxGeometry>
        </mxCell>
        <mxCell id="X1OBW4G1uLcTytMsymYR-8" value="&lt;font style=&quot;font-size: 24px;&quot;&gt;Start&lt;/font&gt;" style="text;html=1;strokeColor=none;fillColor=none;align=center;verticalAlign=middle;whiteSpace=wrap;rounded=0;" parent="1" vertex="1">
          <mxGeometry x="450" y="80" width="60" height="30" as="geometry" />
        </mxCell>
        <mxCell id="X1OBW4G1uLcTytMsymYR-9" value="&lt;font style=&quot;font-size: 24px;&quot;&gt;End&lt;/font&gt;" style="text;html=1;strokeColor=none;fillColor=none;align=center;verticalAlign=middle;whiteSpace=wrap;rounded=0;" parent="1" vertex="1">
          <mxGeometry x="450" y="40" width="60" height="30" as="geometry" />
        </mxCell>
        <mxCell id="X1OBW4G1uLcTytMsymYR-10" value="&lt;font style=&quot;font-size: 24px;&quot;&gt;push(1)&lt;/font&gt;" style="text;html=1;strokeColor=none;fillColor=none;align=center;verticalAlign=middle;whiteSpace=wrap;rounded=0;" parent="1" vertex="1">
          <mxGeometry x="290" y="320" width="120" height="30" as="geometry" />
        </mxCell>
        <mxCell id="X1OBW4G1uLcTytMsymYR-12" value="&lt;font style=&quot;font-size: 24px;&quot;&gt;0&lt;/font&gt;" style="whiteSpace=wrap;html=1;aspect=fixed;" parent="1" vertex="1">
          <mxGeometry x="520" y="480" width="80" height="80" as="geometry" />
        </mxCell>
        <mxCell id="X1OBW4G1uLcTytMsymYR-13" value="&lt;font style=&quot;font-size: 24px;&quot;&gt;0&lt;/font&gt;" style="whiteSpace=wrap;html=1;aspect=fixed;" parent="1" vertex="1">
          <mxGeometry x="600" y="480" width="80" height="80" as="geometry" />
        </mxCell>
        <mxCell id="X1OBW4G1uLcTytMsymYR-14" value="&lt;font style=&quot;font-size: 24px;&quot;&gt;0&lt;/font&gt;" style="whiteSpace=wrap;html=1;aspect=fixed;" parent="1" vertex="1">
          <mxGeometry x="680" y="480" width="80" height="80" as="geometry" />
        </mxCell>
        <mxCell id="X1OBW4G1uLcTytMsymYR-15" value="&lt;font style=&quot;font-size: 24px;&quot;&gt;0&lt;/font&gt;" style="whiteSpace=wrap;html=1;aspect=fixed;" parent="1" vertex="1">
          <mxGeometry x="760" y="480" width="80" height="80" as="geometry" />
        </mxCell>
        <mxCell id="X1OBW4G1uLcTytMsymYR-16" value="" style="shape=flexArrow;endArrow=classic;html=1;rounded=0;" parent="1" edge="1">
          <mxGeometry width="50" height="50" relative="1" as="geometry">
            <mxPoint x="480" y="400" as="sourcePoint" />
            <mxPoint x="480" y="460" as="targetPoint" />
          </mxGeometry>
        </mxCell>
        <mxCell id="X1OBW4G1uLcTytMsymYR-17" value="&lt;font style=&quot;font-size: 24px;&quot;&gt;Start&lt;/font&gt;" style="text;html=1;strokeColor=none;fillColor=none;align=center;verticalAlign=middle;whiteSpace=wrap;rounded=0;" parent="1" vertex="1">
          <mxGeometry x="450" y="360" width="60" height="30" as="geometry" />
        </mxCell>
        <mxCell id="X1OBW4G1uLcTytMsymYR-18" value="&lt;font style=&quot;font-size: 24px;&quot;&gt;End&lt;/font&gt;" style="text;html=1;strokeColor=none;fillColor=none;align=center;verticalAlign=middle;whiteSpace=wrap;rounded=0;" parent="1" vertex="1">
          <mxGeometry x="530" y="360" width="60" height="30" as="geometry" />
        </mxCell>
        <mxCell id="X1OBW4G1uLcTytMsymYR-19" value="&lt;font style=&quot;font-size: 24px;&quot;&gt;make()&lt;/font&gt;" style="text;html=1;strokeColor=none;fillColor=none;align=center;verticalAlign=middle;whiteSpace=wrap;rounded=0;" parent="1" vertex="1">
          <mxGeometry x="290" y="40" width="120" height="30" as="geometry" />
        </mxCell>
        <mxCell id="X1OBW4G1uLcTytMsymYR-20" value="" style="shape=flexArrow;endArrow=classic;html=1;rounded=0;" parent="1" edge="1">
          <mxGeometry width="50" height="50" relative="1" as="geometry">
            <mxPoint x="559" y="400" as="sourcePoint" />
            <mxPoint x="559" y="460" as="targetPoint" />
          </mxGeometry>
        </mxCell>
        <mxCell id="X1OBW4G1uLcTytMsymYR-21" value="&lt;font style=&quot;font-size: 24px;&quot;&gt;1&lt;/font&gt;" style="rounded=0;whiteSpace=wrap;html=1;" parent="1" vertex="1">
          <mxGeometry x="440" y="480" width="80" height="80" as="geometry" />
        </mxCell>
        <mxCell id="X1OBW4G1uLcTytMsymYR-22" value="&lt;font style=&quot;font-size: 24px;&quot;&gt;push(2)&lt;/font&gt;" style="text;html=1;strokeColor=none;fillColor=none;align=center;verticalAlign=middle;whiteSpace=wrap;rounded=0;" parent="1" vertex="1">
          <mxGeometry x="930" y="40" width="120" height="30" as="geometry" />
        </mxCell>
        <mxCell id="X1OBW4G1uLcTytMsymYR-24" value="&lt;font style=&quot;font-size: 24px;&quot;&gt;0&lt;/font&gt;" style="whiteSpace=wrap;html=1;aspect=fixed;" parent="1" vertex="1">
          <mxGeometry x="1240" y="200" width="80" height="80" as="geometry" />
        </mxCell>
        <mxCell id="X1OBW4G1uLcTytMsymYR-25" value="&lt;font style=&quot;font-size: 24px;&quot;&gt;0&lt;/font&gt;" style="whiteSpace=wrap;html=1;aspect=fixed;" parent="1" vertex="1">
          <mxGeometry x="1320" y="200" width="80" height="80" as="geometry" />
        </mxCell>
        <mxCell id="X1OBW4G1uLcTytMsymYR-26" value="&lt;font style=&quot;font-size: 24px;&quot;&gt;0&lt;/font&gt;" style="whiteSpace=wrap;html=1;aspect=fixed;" parent="1" vertex="1">
          <mxGeometry x="1400" y="200" width="80" height="80" as="geometry" />
        </mxCell>
        <mxCell id="X1OBW4G1uLcTytMsymYR-27" value="" style="shape=flexArrow;endArrow=classic;html=1;rounded=0;" parent="1" edge="1">
          <mxGeometry width="50" height="50" relative="1" as="geometry">
            <mxPoint x="1120" y="120" as="sourcePoint" />
            <mxPoint x="1120" y="180" as="targetPoint" />
          </mxGeometry>
        </mxCell>
        <mxCell id="X1OBW4G1uLcTytMsymYR-28" value="&lt;font style=&quot;font-size: 24px;&quot;&gt;Start&lt;/font&gt;" style="text;html=1;strokeColor=none;fillColor=none;align=center;verticalAlign=middle;whiteSpace=wrap;rounded=0;" parent="1" vertex="1">
          <mxGeometry x="1090" y="80" width="60" height="30" as="geometry" />
        </mxCell>
        <mxCell id="X1OBW4G1uLcTytMsymYR-29" value="&lt;font style=&quot;font-size: 24px;&quot;&gt;End&lt;/font&gt;" style="text;html=1;strokeColor=none;fillColor=none;align=center;verticalAlign=middle;whiteSpace=wrap;rounded=0;" parent="1" vertex="1">
          <mxGeometry x="1250" y="80" width="60" height="30" as="geometry" />
        </mxCell>
        <mxCell id="X1OBW4G1uLcTytMsymYR-30" value="" style="shape=flexArrow;endArrow=classic;html=1;rounded=0;" parent="1" edge="1">
          <mxGeometry width="50" height="50" relative="1" as="geometry">
            <mxPoint x="1279" y="120" as="sourcePoint" />
            <mxPoint x="1279" y="180" as="targetPoint" />
          </mxGeometry>
        </mxCell>
        <mxCell id="X1OBW4G1uLcTytMsymYR-31" value="&lt;font style=&quot;font-size: 24px;&quot;&gt;1&lt;/font&gt;" style="rounded=0;whiteSpace=wrap;html=1;" parent="1" vertex="1">
          <mxGeometry x="1080" y="200" width="80" height="80" as="geometry" />
        </mxCell>
        <mxCell id="X1OBW4G1uLcTytMsymYR-32" value="&lt;font style=&quot;font-size: 24px;&quot;&gt;2&lt;/font&gt;" style="rounded=0;whiteSpace=wrap;html=1;" parent="1" vertex="1">
          <mxGeometry x="1160" y="200" width="80" height="80" as="geometry" />
        </mxCell>
        <mxCell id="X1OBW4G1uLcTytMsymYR-33" value="&lt;font style=&quot;font-size: 24px;&quot;&gt;pop()&lt;/font&gt;" style="text;html=1;strokeColor=none;fillColor=none;align=center;verticalAlign=middle;whiteSpace=wrap;rounded=0;" parent="1" vertex="1">
          <mxGeometry x="930" y="320" width="120" height="30" as="geometry" />
        </mxCell>
        <mxCell id="X1OBW4G1uLcTytMsymYR-34" value="&lt;font style=&quot;font-size: 24px;&quot;&gt;0&lt;/font&gt;" style="whiteSpace=wrap;html=1;aspect=fixed;" parent="1" vertex="1">
          <mxGeometry x="1240" y="480" width="80" height="80" as="geometry" />
        </mxCell>
        <mxCell id="X1OBW4G1uLcTytMsymYR-35" value="&lt;font style=&quot;font-size: 24px;&quot;&gt;0&lt;/font&gt;" style="whiteSpace=wrap;html=1;aspect=fixed;" parent="1" vertex="1">
          <mxGeometry x="1320" y="480" width="80" height="80" as="geometry" />
        </mxCell>
        <mxCell id="X1OBW4G1uLcTytMsymYR-36" value="&lt;font style=&quot;font-size: 24px;&quot;&gt;0&lt;/font&gt;" style="whiteSpace=wrap;html=1;aspect=fixed;" parent="1" vertex="1">
          <mxGeometry x="1400" y="480" width="80" height="80" as="geometry" />
        </mxCell>
        <mxCell id="X1OBW4G1uLcTytMsymYR-37" value="" style="shape=flexArrow;endArrow=classic;html=1;rounded=0;" parent="1" edge="1">
          <mxGeometry width="50" height="50" relative="1" as="geometry">
            <mxPoint x="1200" y="400" as="sourcePoint" />
            <mxPoint x="1200" y="460" as="targetPoint" />
          </mxGeometry>
        </mxCell>
        <mxCell id="X1OBW4G1uLcTytMsymYR-38" value="&lt;font style=&quot;font-size: 24px;&quot;&gt;Start&lt;/font&gt;" style="text;html=1;strokeColor=none;fillColor=none;align=center;verticalAlign=middle;whiteSpace=wrap;rounded=0;" parent="1" vertex="1">
          <mxGeometry x="1170" y="360" width="60" height="30" as="geometry" />
        </mxCell>
        <mxCell id="X1OBW4G1uLcTytMsymYR-39" value="&lt;font style=&quot;font-size: 24px;&quot;&gt;End&lt;/font&gt;" style="text;html=1;strokeColor=none;fillColor=none;align=center;verticalAlign=middle;whiteSpace=wrap;rounded=0;" parent="1" vertex="1">
          <mxGeometry x="1250" y="360" width="60" height="30" as="geometry" />
        </mxCell>
        <mxCell id="X1OBW4G1uLcTytMsymYR-40" value="" style="shape=flexArrow;endArrow=classic;html=1;rounded=0;" parent="1" edge="1">
          <mxGeometry width="50" height="50" relative="1" as="geometry">
            <mxPoint x="1279" y="400" as="sourcePoint" />
            <mxPoint x="1279" y="460" as="targetPoint" />
          </mxGeometry>
        </mxCell>
        <mxCell id="X1OBW4G1uLcTytMsymYR-41" value="&lt;font style=&quot;font-size: 24px;&quot;&gt;0&lt;/font&gt;" style="rounded=0;whiteSpace=wrap;html=1;" parent="1" vertex="1">
          <mxGeometry x="1080" y="480" width="80" height="80" as="geometry" />
        </mxCell>
        <mxCell id="X1OBW4G1uLcTytMsymYR-42" value="&lt;font style=&quot;font-size: 24px;&quot;&gt;2&lt;/font&gt;" style="rounded=0;whiteSpace=wrap;html=1;" parent="1" vertex="1">
          <mxGeometry x="1160" y="480" width="80" height="80" as="geometry" />
        </mxCell>
        <mxCell id="hMhbGVon6dLYx-2u-jFr-1" value="&lt;font style=&quot;font-size: 24px;&quot;&gt;0&lt;/font&gt;" style="ellipse;whiteSpace=wrap;html=1;" vertex="1" parent="1">
          <mxGeometry x="320" y="80" width="60" height="60" as="geometry" />
        </mxCell>
        <mxCell id="hMhbGVon6dLYx-2u-jFr-2" value="&lt;font style=&quot;font-size: 24px;&quot;&gt;1&lt;/font&gt;" style="ellipse;whiteSpace=wrap;html=1;" vertex="1" parent="1">
          <mxGeometry x="320" y="360" width="60" height="60" as="geometry" />
        </mxCell>
        <mxCell id="hMhbGVon6dLYx-2u-jFr-3" value="&lt;font style=&quot;font-size: 24px;&quot;&gt;2&lt;/font&gt;" style="ellipse;whiteSpace=wrap;html=1;" vertex="1" parent="1">
          <mxGeometry x="960" y="80" width="60" height="60" as="geometry" />
        </mxCell>
        <mxCell id="hMhbGVon6dLYx-2u-jFr-4" value="&lt;font style=&quot;font-size: 24px;&quot;&gt;3&lt;/font&gt;" style="ellipse;whiteSpace=wrap;html=1;" vertex="1" parent="1">
          <mxGeometry x="960" y="360" width="60" height="60" as="geometry" />
        </mxCell>
      </root>
    </mxGraphModel>
  </diagram>
</mxfile>
